<svg width="24" height="21" viewBox="0 0 24 21" fill="none" xmlns="http://www.w3.org/2000/svg">
<path d="M19.9861 3.92717C19.9861 6.09608 18.2077 7.85433 16.0139 7.85433C13.8202 7.85433 12.0418 6.09608 12.0418 3.92717C12.0418 1.75825 13.8202 0 16.0139 0C18.2077 0 19.9861 1.75825 19.9861 3.92717Z" fill="#EEEEEE"/>
<path d="M11.9582 9.13583C11.9582 12.4006 9.28126 15.0472 5.97909 15.0472C2.67693 15.0472 0 12.4006 0 9.13583C0 5.87104 2.67693 3.22441 5.97909 3.22441C9.28126 3.22441 11.9582 5.87104 11.9582 9.13583Z" fill="#EEEEEE"/>
<path d="M24 15.0886C24 18.3534 21.3231 21 18.0209 21C14.7187 21 12.0418 18.3534 12.0418 15.0886C12.0418 11.8238 14.7187 9.17717 18.0209 9.17717C21.3231 9.17717 24 11.8238 24 15.0886Z" fill="#EEEEEE"/>
</svg>

